<svg xmlns="http://www.w3.org/2000/svg" width="18" height="17.988" viewBox="0 0 18 17.988">
  <path id="mountains" d="M14.99,6a3,3,0,1,1,3-3A3,3,0,0,1,14.99,6Zm0-4.5a1.5,1.5,0,1,0,1.5,1.5A1.5,1.5,0,0,0,14.99,1.5Zm1.088,16.489H9.436a1.91,1.91,0,0,1-1.665-.944,1.846,1.846,0,0,1-.022-1.852l3.325-5.965a1.949,1.949,0,0,1,3.373,0l3.317,5.961a1.85,1.85,0,0,1-.021,1.855,1.912,1.912,0,0,1-1.664.946Zm-3.32-8.244a.42.42,0,0,0-.375.212L9.06,15.921a.355.355,0,0,0,0,.364.419.419,0,0,0,.375.2h6.643a.421.421,0,0,0,.375-.206.359.359,0,0,0,0-.367l-3.322-5.96h0a.418.418,0,0,0-.375-.213ZM6,17.238a.749.749,0,0,0-.749-.749H2.511a1.011,1.011,0,0,1-.887-1.494L6.61,5.776A1,1,0,0,1,7.5,5.246h0a.994.994,0,0,1,.887.529l.92,1.7a.75.75,0,1,0,1.319-.714L9.7,5.063a2.506,2.506,0,0,0-4.411,0L.3,14.282a2.512,2.512,0,0,0,2.207,3.706H5.247A.749.749,0,0,0,6,17.238Z" transform="translate(-0.003)" fill="#002f6c"/>
</svg>
