<svg xmlns="http://www.w3.org/2000/svg" width="11.654" height="17.481" viewBox="0 0 11.654 17.481">
  <g id="icon-user" transform="translate(-85.325)">
    <path id="Tracé_330" data-name="Tracé 330" d="M90.754,298.676a5.965,5.965,0,0,0-5.428,6.02v.158a1.093,1.093,0,0,0,1.093,1.093h0a1.093,1.093,0,0,0,1.093-1.093v-.2a3.753,3.753,0,0,1,3.278-3.788,3.646,3.646,0,0,1,3.988,3.269q.018.178.018.356v.364a1.093,1.093,0,0,0,1.093,1.093h0a1.093,1.093,0,0,0,1.093-1.093v-.364a5.833,5.833,0,0,0-5.84-5.827Q90.947,298.663,90.754,298.676Z" transform="translate(0 -288.466)" fill="#002f6c"/>
    <path id="Tracé_331" data-name="Tracé 331" d="M132.378,8.74a4.37,4.37,0,1,0-4.37-4.37A4.37,4.37,0,0,0,132.378,8.74Zm0-6.555a2.185,2.185,0,1,1-2.185,2.185A2.185,2.185,0,0,1,132.378,2.185Z" transform="translate(-41.225)" fill="#002f6c"/>
  </g>
</svg>
