<svg xmlns="http://www.w3.org/2000/svg" width="13.503" height="18" viewBox="0 0 13.503 18">
  <path id="hourglass-end" d="M13.5,18H6a3.01,3.01,0,0,1-2.283-1.05,2.955,2.955,0,0,1-.688-2.369A9.392,9.392,0,0,1,6.334,9a9.391,9.391,0,0,1-3.3-5.583A2.955,2.955,0,0,1,3.721,1.05,3.011,3.011,0,0,1,6,0h7.5a3.013,3.013,0,0,1,2.283,1.05,2.957,2.957,0,0,1,.689,2.366A9.417,9.417,0,0,1,13.163,9a9.418,9.418,0,0,1,3.3,5.586,2.958,2.958,0,0,1-.689,2.367A3.013,3.013,0,0,1,13.5,18Zm0-16.5H6a1.511,1.511,0,0,0-1.146.525,1.441,1.441,0,0,0-.342,1.167A8.409,8.409,0,0,0,7.966,8.41a.75.75,0,0,1,0,1.176,8.429,8.429,0,0,0-3.45,5.22,1.441,1.441,0,0,0,.342,1.169A1.511,1.511,0,0,0,6,16.5h7.5a1.51,1.51,0,0,0,1.146-.525,1.438,1.438,0,0,0,.342-1.165,8.451,8.451,0,0,0-3.45-5.222.75.75,0,0,1,0-1.173,8.444,8.444,0,0,0,3.45-5.222,1.437,1.437,0,0,0-.346-1.168A1.511,1.511,0,0,0,13.5,1.5ZM12.511,15H6.989a.75.75,0,0,1-.7-1.03,8.389,8.389,0,0,1,2.6-3.2l.388-.309a.75.75,0,0,1,.934,0l.382.3a8.475,8.475,0,0,1,2.6,3.207A.75.75,0,0,1,12.511,15ZM8.276,13.5h2.946A8.677,8.677,0,0,0,9.75,12,8.475,8.475,0,0,0,8.276,13.5Z" transform="translate(-3.001)" fill="#002f6c"/>
</svg>
