<svg xmlns="http://www.w3.org/2000/svg" width="17" height="16.99" viewBox="0 0 17 16.99">
  <path id="home_1_" data-name="home (1)" d="M16.377,6.43,11,1.057A3.547,3.547,0,0,0,6,1.057L.623,6.43A2.109,2.109,0,0,0,0,7.932v6.954a2.125,2.125,0,0,0,2.125,2.125h12.75A2.125,2.125,0,0,0,17,14.886V7.932A2.109,2.109,0,0,0,16.377,6.43Zm-5.752,9.164H6.375V12.808a2.125,2.125,0,1,1,4.25,0Zm4.958-.708a.708.708,0,0,1-.708.708H12.042V12.808a3.542,3.542,0,0,0-7.083,0v2.787H2.125a.708.708,0,0,1-.708-.708V7.932a.714.714,0,0,1,.208-.5L7,2.06A2.131,2.131,0,0,1,10,2.06l5.373,5.373a.714.714,0,0,1,.208.5Z" transform="translate(0 -0.021)" fill="#002f6c"/>
</svg>
