<svg xmlns="http://www.w3.org/2000/svg" xmlns:xlink="http://www.w3.org/1999/xlink" width="137.641" height="57.325" viewBox="0 0 137.641 57.325">
  <defs>
    <clipPath id="clip-path">
      <rect id="Rectangle_1921" data-name="Rectangle 1921" width="137.641" height="57.325" transform="translate(0 0)" fill="none"/>
    </clipPath>
  </defs>
  <g id="Groupe_830" data-name="Groupe 830" transform="translate(0 0)">
    <g id="Groupe_829" data-name="Groupe 829" clip-path="url(#clip-path)">
      <path id="Tracé_8968" data-name="Tracé 8968" d="M30.086,5a23.548,23.548,0,0,0-12.5-3.487A24.186,24.186,0,0,0,5.479,5.31Q0,8.794,0,19.111V42.767H10.8V16.983q0-3.634,2.158-5.3A7.857,7.857,0,0,1,17.9,10.01a8.174,8.174,0,0,1,5.014,1.668q2.238,1.671,2.239,5.3V37.612a4.986,4.986,0,0,0,1.464,3.716,5.17,5.17,0,0,0,3.781,1.439h5.4V19.111q0-10.62-5.708-14.107" fill="#002d64"/>
      <path id="Tracé_8969" data-name="Tracé 8969" d="M40.826,16.832q0,4.1,4.166,4.095h4.474V0h-8.64Z" fill="#002d64"/>
      <path id="Tracé_8970" data-name="Tracé 8970" d="M83.091,2.958A22.545,22.545,0,0,0,75.3,1.515,25.841,25.841,0,0,0,61.567,5.384q-6.324,3.87-6.323,14.483V57.325h5.245a5.111,5.111,0,0,0,3.7-1.515,4.933,4.933,0,0,0,1.542-3.64V37.46a11.534,11.534,0,0,0,4.937,4.7,15.913,15.913,0,0,0,6.791,1.366A14.565,14.565,0,0,0,89.34,37.763q4.631-5.915,4.629-15.47,0-9.249-4.629-15.167a14.533,14.533,0,0,0-6.249-4.168M81.008,31.394a7.407,7.407,0,0,1-6.327,3.184,7.716,7.716,0,0,1-6.635-3.184q-2.313-2.881-2.313-8.646,0-6.216,2.161-9.1a7.543,7.543,0,0,1,6.479-3.188,7.7,7.7,0,0,1,6.635,3.188q2.317,3.182,2.316,9.1,0,5.46-2.316,8.646" fill="#002d64"/>
      <path id="Tracé_8971" data-name="Tracé 8971" d="M129.7,2.427q-4.311,0-5.3,3.64l-7.779,24.869L107.674,2.427H94.928l15.4,40.19q1.153,3.18-.748,4.623a8.45,8.45,0,0,1-5.214,1.44H101.22v8.5a24.469,24.469,0,0,0,2.482.145h2.318q6.788,0,9.767-1.818,2.978-2.13,4.968-7.13l16.886-45.95Z" fill="#002d64"/>
    </g>
  </g>
</svg>
